<?xml version="1.0" encoding="UTF-8"?>
<svg id="Layer_1" data-name="Layer 1" xmlns="http://www.w3.org/2000/svg" width="10.897in" height="1.835in" viewBox="0 0 784.576 132.123">
  <g>
    <circle cx="66.559" cy="65.964" r="60.693" fill="#fff" stroke="#ef6f22" stroke-miterlimit="10" stroke-width="3"/>
    <path d="M89.998,29.796c-.822-4.036-2.704-7.654-5.361-10.579-2.657-2.925-6.089-5.158-10.01-6.422-.962-.31-1.892-.555-2.789-.734-.897-.179-1.762-.292-2.595-.339-1.5-.083-2.693-.095-3.58-.035-6.972.479-13.406,4.032-17.417,9.748-.978,1.394-1.783,2.872-2.415,4.434-.632,1.562-1.09,3.207-1.376,4.936-.052.316-.096.675-.133,1.076-.109,1.205-.148,2.797-.116,4.776.004.289.008,1.25.011,2.883.002.98.003,2.201.003,3.665v2.808c-3.808.004-6.749.006-8.735.006-.539,0-1.011,0-1.416,0-.81,0-1.351-.002-1.624-.005h0c-.672-.006-1.323.009-1.955.046-1.899.111-3.643.423-5.363.978-3.808,1.228-7.013,3.366-9.616,6.414-3.378,3.956-5.096,9.284-4.567,14.466.645,6.301,4.226,11.739,9.582,15.052,3.256,2.016,6.803,3.02,10.64,3.011,3.824-.009,3.339-.012,5.874-.014.194,0,.375-.104.472-.274,1.398-2.44,3.002-4.721,4.817-6.843.003-.005.007-.009.011-.014.018-.027-.013-.052-.018-.083-.004-.03.018-.062-.007-.084-.004-.003-.009-.007-.014-.011-.037-.025-.095-.037-.178-.037-6.444,0-7.477-.002-10.428-.009-3.884-.009-7.536-1.352-10.075-4.184-1.249-1.398-2.134-2.945-2.656-4.647-.474-1.55-.666-2.965-.58-4.248.072-1.06.243-2.061.515-3.002.272-.941.644-1.824,1.117-2.646.473-.823,1.045-1.586,1.718-2.29.673-.704,1.446-1.348,2.319-1.934,2.09-1.401,4.378-2.145,6.861-2.235.163-.006.394-.011.692-.016,1.784-.027,5.991-.027,12.613-.003v9.266c1.032-.807,2.328-1.292,3.74-1.292,1.471,0,2.821.523,3.872,1.392v-9.133c.753.094,1.502.217,2.259.418.422.111,1.24.394,2.453.846,2.367.885,4.064,1.496,5.836,1.91.591.138,1.19.254,1.825.35.573.087,1.15.149,1.73.186,4.055.257,8.216-.708,11.84-2.575,3.978-2.049,7.207-5.155,9.41-8.845.629-1.054,1.175-2.157,1.63-3.296.455-1.139.82-2.315,1.088-3.516.268-1.202.439-2.429.507-3.671.034-.621.042-1.246.023-1.873-.037-1.254-.181-2.518-.437-3.78ZM81.497,40.861c-1.583,3.267-4.311,6.014-7.578,7.533-.957.445-1.927.759-2.904,1.004-2.396.599-4.85.626-7.367.019-1.233-.298-2.476-.743-3.681-1.199-1.205-.455-2.373-.921-3.456-1.257-1.053-.327-2.359-.597-3.919-.811-.2-.027-.46-.049-.758-.069v-2.875h-.151c-.017-3.593-.024-6.843-.017-9.746.002-.666.088-1.359.26-2.074.55-2.294,1.456-4.298,2.717-6.014,1.261-1.715,2.877-3.142,4.849-4.279.492-.283,1.006-.534,1.536-.753,1.059-.438,2.178-.751,3.293-.951.558-.1,1.114-.171,1.662-.216.833-.068,1.652-.075,2.458-.021,2.419.16,4.718.864,6.899,2.113,4.848,2.774,7.621,7.73,7.639,13.309.006,2.18-.531,4.327-1.481,6.287Z" fill="#007a6c"/>
    <circle cx="48.038" cy="68.82" r="5.222" fill="#ef6f22"/>
    <path d="M117.86,54.041c-3.592-4.508-8.275-7.145-14.044-7.916-.627-.083-1.497-.124-2.612-.122-3.03.007-4.988-.001-5.642,0-.454,0-.826.033-1.117.094-.889,2.676-2.257,5.133-4.012,7.262,3.908.002,5.515.021,9.017.026,1.308.003,2.636-.021,3.875.12,2.998.341,5.548,1.626,7.649,3.852,3.751,3.976,4.734,9.923,1.984,14.754-1.972,3.465-4.947,5.693-8.861,6.357-.659.111-2.416.164-5.273.155-3.989-.012-7.388-.017-10.211-.015v-23.297c-2.17,2.081-4.751,3.734-7.612,4.825v18.263c-1.125-.166-2.206-.437-3.26-.853-2.866-1.131-4.523-1.769-4.974-1.912-4.006-1.267-7.965-1.498-11.881-.694-5.265,1.081-9.865,3.926-13.337,8.006-3.235,3.801-5.251,8.847-5.202,13.902.055,5.656,2.08,10.983,5.849,15.017,4.366,4.672,9.771,7.193,16.213,7.564,7.398.424,14.683-2.891,19.26-8.63,2.997-3.757,4.909-8.844,4.898-13.819-.004-2.071-.004-4.818.002-8.245,0-.03-.031-.038-.054-.054h.098v-2.68c2.911-.001,6.98-.002,12.25-.002,1.558,0,2.696-.044,3.415-.131,5.059-.611,9.722-3.322,13.066-7.145,6.013-6.877,6.274-17.456.514-24.684ZM81.169,95.822c.037,2.382-.147,4.265-.995,6.276-.861,2.034-2.062,3.832-3.605,5.393-3.702,3.744-9.135,5.331-14.289,4.197-4.497-.989-8.25-3.589-10.494-7.575-1.094-1.944-1.73-4.029-1.905-6.257-.316-4.029,1.235-7.57,3.91-10.554,1.917-2.138,4.209-3.629,6.872-4.476,2.617-.832,5.331-.967,8.142-.403.709.143,1.716.459,3.02.952,1.491.564,2.477.936,2.956,1.122,1.424.546,3.037.967,4.838,1.262.382.062.859.109,1.381.148v2.776h.252c-.06.022-.123.055-.123.123.018,4.143.03,6.483.039,7.017Z" fill="#172a53"/>
  </g>
  <path d="M213.038,53.692c0,14.709-10.887,23.781-28.46,23.781h-15.09v19.292h-12.416V29.911h27.505c17.573,0,28.46,8.979,28.46,23.781ZM200.527,53.692c0-8.404-5.635-13.275-16.522-13.275h-14.517v26.55h14.517c10.887,0,16.522-4.869,16.522-13.275Z" fill="#172a53"/>
  <path d="M253.329,45.193v11.365c-1.05-.191-1.909-.286-2.77-.286-9.073,0-14.803,5.346-14.803,15.757v24.736h-11.937v-50.999h11.364v7.449c3.438-5.349,9.646-8.022,18.146-8.022Z" fill="#172a53"/>
  <path d="M312.823,45.765v50.999h-11.365v-6.59c-4.012,4.871-9.933,7.258-16.904,7.258-14.899,0-25.787-10.313-25.787-26.168s10.888-26.072,25.787-26.072c6.493,0,12.224,2.196,16.331,6.781v-6.208h11.938ZM301.075,71.265c0-9.742-6.494-15.95-15.184-15.95-8.597,0-15.091,6.208-15.091,15.95s6.494,15.95,15.091,15.95c8.69,0,15.184-6.208,15.184-15.95Z" fill="#172a53"/>
  <path d="M324.272,71.265c0-15.28,11.459-26.072,27.6-26.072,9.933,0,17.86,4.105,21.776,11.843l-9.17,5.349c-3.055-4.871-7.64-7.069-12.702-7.069-8.785,0-15.471,6.112-15.471,15.95,0,9.933,6.685,15.95,15.471,15.95,5.062,0,9.647-2.198,12.702-7.067l9.17,5.346c-3.917,7.642-11.843,11.938-21.776,11.938-16.141,0-27.6-10.886-27.6-26.168Z" fill="#172a53"/>
  <path d="M412.125,93.996c-2.866,2.291-7.162,3.437-11.461,3.437-11.174,0-17.573-5.921-17.573-17.189v-45.748h11.938v11.652h13.657v9.551h-13.657v24.256c0,4.967,2.58,7.642,7.067,7.642,2.484,0,4.871-.668,6.685-2.103l3.344,8.501Z" fill="#172a53"/>
  <path d="M445.349,71.265c0-15.28,11.459-26.072,27.6-26.072,9.932,0,17.859,4.105,21.775,11.843l-9.17,5.349c-3.055-4.871-7.639-7.069-12.701-7.069-8.785,0-15.471,6.112-15.471,15.95,0,9.933,6.685,15.95,15.471,15.95,5.062,0,9.646-2.198,12.701-7.067l9.17,5.346c-3.917,7.642-11.843,11.938-21.775,11.938-16.141,0-27.6-10.886-27.6-26.168Z" fill="#172a53"/>
  <path d="M542.372,81.771l6.303,7.353c-4.489,5.444-11.652,8.308-20.44,8.308-17.096,0-28.173-10.981-28.173-26.168s11.077-26.072,26.263-26.072c14.23,0,25.69,9.549,25.786,25.499l-39.061,7.64c2.482,5.826,8.022,8.979,15.471,8.979,5.73,0,10.124-1.816,13.85-5.54ZM511.617,70.597v.095l28.843-5.54c-1.623-6.208-6.972-10.411-14.134-10.411-8.692,0-14.709,6.112-14.709,15.855Z" fill="#172a53"/>
  <path d="M564.706,29.911h12.416v56.35h34.955v10.504h-47.371V29.911Z" fill="#ef6f22"/>
  <path d="M698.591,67.539v29.225h-11.938v-27.695c0-9.074-4.489-13.466-12.129-13.466-8.501,0-14.232,5.155-14.232,15.375v25.786h-11.938v-50.999h11.365v6.59c3.917-4.68,10.124-7.162,17.573-7.162,12.225,0,21.299,6.972,21.299,22.347Z" fill="#ef6f22"/>
  <path d="M734.583,74.895l-8.883,8.404v13.466h-11.938V25.901h11.938v42.786l24.736-22.922h14.327l-21.299,21.392,23.304,29.607h-14.516l-17.669-21.869Z" fill="#ef6f22"/>
  <circle cx="428.737" cy="45.765" r="8.159" fill="#172a53"/>
  <path d="M427.923,58.991c-2.366,0-4.479-1.023-5.969-2.632v40.406h11.938v-40.406c-1.49,1.609-3.603,2.632-5.969,2.632Z" fill="#172a53"/>
  <path d="M626.957,58.991c-2.366,0-4.479-1.023-5.969-2.632v40.406h11.938v-40.406c-1.49,1.609-3.603,2.632-5.969,2.632Z" fill="#ef6f22"/>
  <circle cx="626.957" cy="45.765" r="8.159" fill="#ef6f22"/>
  <g>
    <path d="M768.891,53.765v-6.764h-2.123v-1.235h5.793v1.235h-2.123v6.764h-1.547Z" fill="#172a53"/>
    <path d="M779.819,53.765v-7.004l-2.219,7.004h-.756l-2.219-7.004v7.004h-1.175v-8h2.255l1.667,5.157,1.655-5.157h2.267v8h-1.475Z" fill="#172a53"/>
  </g>
</svg>